<svg width="16" height="16" viewBox="0 0 16 16" fill="none" xmlns="http://www.w3.org/2000/svg">
<path d="M15.5242 5.29089C15.1241 4.18623 14.484 3.18564 13.6519 2.35315C12.8198 1.52066 11.8197 0.880276 10.7156 0.480039C9.61143 0.0798021 8.43529 -0.0722879 7.26714 0.0317737C5.75496 0.175859 4.31478 0.744196 3.10664 1.67275C1.90649 2.6013 0.994377 3.85804 0.474314 5.28288C-0.0377489 6.71573 -0.141762 8.26065 0.194279 9.74152C0.522319 11.2224 1.27441 12.5832 2.34654 13.6558C3.41867 14.7285 4.77884 15.4809 6.25902 15.8091C7.7392 16.1373 9.29139 16.0413 10.7156 15.529C12.1477 15.0166 13.3959 14.0961 14.324 12.8954C15.2521 11.6947 15.8202 10.2538 15.9642 8.73293C16.0762 7.57224 15.9242 6.39554 15.5242 5.29089ZM11.1556 10.1658C11.4357 10.4459 11.4357 10.8782 11.1556 11.1584C11.0196 11.2944 10.8436 11.3585 10.6596 11.3585C10.4755 11.3585 10.2915 11.2944 10.1635 11.1584L8.00323 9.00509L5.85097 11.1584C5.71495 11.2944 5.53893 11.3585 5.35491 11.3585C5.17089 11.3585 4.98686 11.2944 4.85885 11.1584C4.57881 10.8782 4.57881 10.4459 4.85885 10.1658L7.01111 8.0125L4.85085 5.85122C4.57081 5.57105 4.57081 5.1388 4.85085 4.85863C5.13088 4.57847 5.56293 4.57847 5.84297 4.85863L8.00323 7.01191L10.1555 4.85863C10.4355 4.57847 10.8676 4.57847 11.1476 4.85863C11.4277 5.1388 11.4277 5.57105 11.1476 5.85122L8.99535 8.0045L11.1556 10.1658Z" fill="#D84C4C"/>
</svg>
