<svg width="195" height="52" viewBox="0 0 195 52" fill="none" xmlns="http://www.w3.org/2000/svg">
<path d="M5.49289 45.5754C6.02955 45.7865 6.56621 45.9675 7.16601 46.2088C7.7658 46.42 8.39717 46.6311 9.06011 46.8422C9.72304 47.0534 10.386 47.2042 11.0805 47.355C11.775 47.4756 12.4379 47.5661 13.1008 47.5661C15.0581 47.5661 16.4471 47.0232 17.331 45.9072C18.2149 44.7912 18.6253 43.3434 18.6253 41.594C18.6253 39.8747 18.2465 38.1253 17.4888 36.3457C16.889 38.0348 15.9736 39.3318 14.6793 40.2065C13.4165 41.0812 11.7118 41.5336 9.62833 41.5336C7.98678 41.5336 6.56621 41.232 5.36661 40.6589C4.16702 40.0858 3.15683 39.2413 2.36762 38.1554C1.57842 37.0696 0.978618 35.7726 0.599798 34.2343C0.18941 32.6659 0 30.9768 0 29.1067C0 27.2065 0.315683 25.4571 0.915481 23.8283C1.51528 22.2297 2.36762 20.8121 3.47251 19.6659C4.5774 18.4896 5.87171 17.5847 7.41855 16.9211C8.9654 16.2575 10.6385 15.9258 12.501 15.9258C13.3218 15.9258 14.2373 15.9861 15.1844 16.0766C16.1314 16.1671 17.0785 16.2877 17.9939 16.4385C18.9094 16.5893 19.7933 16.7401 20.6141 16.9211C21.4349 17.1021 22.1294 17.2227 22.7292 17.3735L22.4766 31.0974C22.4451 32.0928 22.5082 32.9977 22.666 33.8422C22.8239 34.6868 23.0133 35.5012 23.2027 36.3155C23.4237 37.1299 23.6131 37.9443 23.7709 38.7889C23.9603 39.6334 24.0235 40.5383 24.0235 41.5336C24.0235 45.0626 23.0764 47.6868 21.2139 49.406C19.3198 51.1253 16.7943 52 13.5744 52C12.5326 52 11.4909 51.9095 10.4491 51.7285C9.40736 51.5476 8.42874 51.3364 7.54483 51.0951C6.66091 50.8538 5.90327 50.6427 5.27191 50.4014C4.64054 50.1601 4.23015 50.0093 4.00918 49.8886L5.49289 45.5754ZM12.943 36.7077C13.6691 36.1647 14.3004 35.471 14.8371 34.5963C15.4053 33.7216 15.8157 32.6961 16.1314 31.58C16.4471 30.464 16.6049 29.2877 16.6049 28.0812V20.4803C16.2577 20.3898 15.721 20.2691 15.0265 20.1183C14.332 19.9977 13.7006 19.9072 13.1324 19.9072C11.8065 19.9072 10.7332 20.1183 9.88088 20.5708C9.02854 20.993 8.33403 21.5963 7.82894 22.3805C7.29228 23.1346 6.94503 24.0696 6.72405 25.1253C6.50307 26.181 6.40837 27.3573 6.40837 28.6241C6.40837 29.8005 6.43994 30.9165 6.50307 31.9722C6.56621 33.0278 6.75562 33.993 7.03973 34.8074C7.32385 35.652 7.7658 36.2854 8.33403 36.768C8.90226 37.2506 9.62833 37.4919 10.5754 37.4919C11.4277 37.4919 12.2169 37.2204 12.943 36.7077Z" fill="#393939"/>
<path d="M27.6854 23.4664C28.3167 21.7773 29.2322 20.3596 30.3371 19.2135C31.4736 18.0673 32.7994 17.1926 34.3463 16.6195C35.8931 16.0464 37.5347 15.7448 39.3025 15.7448C40.8809 15.7448 42.2068 15.9258 43.3117 16.2877C44.4166 16.6497 45.3005 17.1624 45.995 17.7958C46.6895 18.4292 47.1946 19.1833 47.5418 20.0278C47.8575 20.9026 48.0469 21.8376 48.0469 22.8329C48.0469 24.0394 47.6997 25.1856 47.0052 26.2413C46.3107 27.3272 45.3005 28.2622 44.0062 29.0766C42.7119 29.891 41.1335 30.5545 39.2709 31.0371C37.44 31.5197 35.3565 31.7912 33.052 31.8214C33.1467 32.5754 33.3361 33.2993 33.5571 33.993C33.778 34.6868 34.1253 35.2599 34.5357 35.8028C34.9776 36.3156 35.5459 36.7378 36.2404 37.0395C36.9349 37.3411 37.8188 37.4919 38.8605 37.4919C39.6182 37.4919 40.439 37.4014 41.3229 37.2506C42.2068 37.0696 42.996 36.8886 43.7221 36.6473C44.606 36.3759 45.4583 36.0743 46.2791 35.7425L47.8575 39.2715C46.942 39.6937 45.9634 40.0859 44.9217 40.4176C44.0062 40.7193 42.9644 40.9907 41.7964 41.2019C40.5968 41.4432 39.3656 41.5638 38.0398 41.5638C36.0194 41.5638 34.2831 41.2622 32.8626 40.6891C31.442 40.116 30.274 39.2715 29.3585 38.2158C28.443 37.1601 27.7801 35.8631 27.3697 34.3852C26.9593 32.877 26.7383 31.2181 26.7383 29.4084C26.7067 27.116 27.054 25.1555 27.6854 23.4664ZM35.9878 20.3898C35.2302 20.9026 34.6304 21.5661 34.1884 22.3805C33.7465 23.1949 33.3992 24.0998 33.2098 25.1253C33.0204 26.1508 32.8941 27.1763 32.8626 28.2019C34.5357 28.1415 35.9563 27.9304 37.1243 27.5685C38.2923 27.2065 39.2394 26.7842 39.9654 26.2715C40.6915 25.7587 41.2282 25.1856 41.5438 24.6125C41.8595 24.0093 42.0489 23.406 42.0489 22.8028C42.0489 21.8376 41.7648 21.0534 41.165 20.4803C40.5652 19.9072 39.776 19.6056 38.829 19.6056C37.6925 19.6357 36.7455 19.877 35.9878 20.3898Z" fill="#393939"/>
<path d="M61.7476 21.9582C61.1162 22.2599 60.548 22.652 60.0745 23.1949C59.601 23.7077 59.1906 24.3411 58.8749 25.065C58.5592 25.7889 58.4014 26.6033 58.4014 27.5081V41.1717H52.435V28.594C52.435 26.6033 52.3087 24.9142 52.0246 23.587C51.7405 22.2297 51.4563 21.1439 51.1407 20.3295C50.7618 19.3643 50.3515 18.5801 49.8779 17.9768L54.5816 16.1671C54.8973 16.529 55.213 16.9814 55.5602 17.5244C55.8443 17.9768 56.1285 18.5499 56.381 19.1833C56.6651 19.8167 56.8861 20.5708 57.0755 21.4153C57.77 19.4849 58.7802 18.0975 60.1061 17.2529C61.4319 16.4084 62.9156 15.9861 64.5888 15.9861C65.378 15.9861 66.1356 16.0766 66.8301 16.2575C67.5246 16.4385 67.8719 16.529 67.8087 16.529L66.1356 22.0789C66.1672 22.0789 65.9778 21.9884 65.5358 21.8074C65.0939 21.6265 64.4625 21.536 63.5786 21.536C63.0103 21.5058 62.379 21.6566 61.7476 21.9582Z" fill="#393939"/>
<path d="M69.2607 23.4664C69.8921 21.7773 70.8076 20.3596 71.9125 19.2135C73.0489 18.0673 74.3748 17.1926 75.9216 16.6195C77.4685 16.0464 79.11 15.7448 80.8779 15.7448C82.4563 15.7448 83.7821 15.9258 84.887 16.2877C85.9919 16.6497 86.8758 17.1624 87.5703 17.7958C88.2648 18.4292 88.7699 19.1833 89.1172 20.0278C89.4329 20.9026 89.6223 21.8376 89.6223 22.8329C89.6223 24.0394 89.275 25.1856 88.5805 26.2413C87.886 27.3272 86.8758 28.2622 85.5815 29.0766C84.2872 29.891 82.7088 30.5545 80.8463 31.0371C79.0153 31.5197 76.9318 31.7912 74.6273 31.8214C74.722 32.5754 74.9115 33.2993 75.1324 33.993C75.3534 34.6868 75.7007 35.2599 76.1111 35.8028C76.553 36.3156 77.1212 36.7378 77.8157 37.0395C78.5102 37.3411 79.3942 37.4919 80.4359 37.4919C81.1935 37.4919 82.0143 37.4014 82.8982 37.2506C83.7821 37.0696 84.5714 36.8886 85.2974 36.6473C86.1813 36.3759 87.0337 36.0743 87.8545 35.7425L89.4329 39.2715C88.5174 39.6937 87.5388 40.0859 86.497 40.4176C85.5815 40.7193 84.5398 40.9907 83.3718 41.2019C82.1722 41.4432 80.941 41.5638 79.6151 41.5638C77.5948 41.5638 75.8585 41.2622 74.4379 40.6891C73.0174 40.116 71.8493 39.2715 70.9338 38.2158C70.0184 37.1601 69.3554 35.8631 68.945 34.3852C68.5347 32.877 68.3137 31.2181 68.3137 29.4084C68.2821 27.116 68.5978 25.1555 69.2607 23.4664ZM77.5632 20.3898C76.8056 20.9026 76.2058 21.5661 75.7638 22.3805C75.3218 23.1949 74.9746 24.0998 74.7852 25.1253C74.5958 26.1508 74.4695 27.1763 74.4379 28.2019C76.1111 28.1415 77.5316 27.9304 78.6997 27.5685C79.8677 27.2065 80.8147 26.7842 81.5408 26.2715C82.2669 25.7587 82.8035 25.1856 83.1192 24.6125C83.4349 24.0093 83.6243 23.406 83.6243 22.8028C83.6243 21.8376 83.3402 21.0534 82.7404 20.4803C82.1406 19.9072 81.3514 19.6056 80.4043 19.6056C79.2679 19.6357 78.3208 19.877 77.5632 20.3898Z" fill="#393939"/>
<path d="M109.763 41.1717V25.065C109.763 23.6775 109.51 22.5313 108.974 21.6868C108.437 20.8422 107.553 20.42 106.322 20.42C105.533 20.42 104.743 20.6009 103.986 20.993C103.228 21.3851 102.565 21.9281 101.965 22.652C101.366 23.3759 100.892 24.2807 100.513 25.3364C100.134 26.3921 99.9766 27.5684 99.9766 28.8654V41.2019H94.0101V28.594C94.0101 26.6032 93.8839 24.9141 93.5998 23.587C93.3157 22.2297 93.0315 21.1438 92.7159 20.3295C92.337 19.3643 91.9266 18.58 91.4531 17.9768L96.1568 16.167C96.5041 16.529 96.8513 16.9814 97.1986 17.5244C97.4827 17.9768 97.7668 18.5499 98.0193 19.2436C98.3034 19.9374 98.5244 20.6914 98.7138 21.5661C99.6293 19.5754 100.924 18.1276 102.628 17.2529C104.333 16.3782 106.132 15.9258 107.995 15.9258C110.678 15.9258 112.604 16.71 113.835 18.2483C115.035 19.7865 115.634 21.8979 115.634 24.522V41.2019H109.763V41.1717Z" fill="#393939"/>
<path d="M135.365 22.1694C134.828 21.5963 134.323 21.1137 133.786 20.7216C133.25 20.3295 132.524 20.1183 131.608 20.1183C131.072 20.1183 130.503 20.1787 129.872 20.3295C129.241 20.4803 128.641 20.8422 128.073 21.4153C127.504 21.9884 127.062 22.8631 126.684 23.9791C126.305 25.1253 126.147 26.6334 126.147 28.5638C126.147 30.5244 126.336 32.0928 126.684 33.239C127.031 34.3852 127.504 35.29 128.104 35.9234C128.672 36.5568 129.304 36.949 129.967 37.1601C130.63 37.3411 131.261 37.4316 131.892 37.4316C132.366 37.4316 132.871 37.4014 133.408 37.3109C133.944 37.2204 134.449 37.1299 134.923 37.0093C135.396 36.8886 135.838 36.7981 136.217 36.6775C136.596 36.587 136.849 36.4965 137.038 36.4362L138.49 40.0255C138.395 40.0557 138.143 40.1462 137.796 40.3272C137.417 40.5081 136.943 40.6589 136.312 40.8399C135.681 41.0209 134.923 41.1717 134.071 41.3225C133.187 41.4733 132.24 41.5336 131.135 41.5336C129.114 41.5336 127.378 41.232 125.958 40.6589C124.537 40.0859 123.369 39.2413 122.422 38.1856C121.506 37.1299 120.812 35.833 120.37 34.355C119.928 32.8469 119.707 31.1879 119.707 29.3782C119.707 27.1763 120.023 25.2459 120.623 23.5267C121.222 21.8376 122.075 20.42 123.148 19.2738C124.221 18.1276 125.484 17.2529 126.968 16.6497C128.42 16.0464 129.998 15.7448 131.671 15.7448C133.313 15.7448 134.702 16.0464 135.838 16.6497C136.975 17.2529 137.922 18.0673 138.743 19.1531L135.365 22.1694Z" fill="#393939"/>
<path d="M147.171 6.1833C147.771 6.81671 148.055 7.63109 148.055 8.62645C148.055 9.62181 147.739 10.4664 147.14 11.1299C146.54 11.7935 145.624 12.1253 144.456 12.1253C143.351 12.1253 142.467 11.7935 141.868 11.1601C141.268 10.4965 140.952 9.7123 140.952 8.77726C140.952 7.75174 141.268 6.90719 141.868 6.24362C142.467 5.58005 143.383 5.24826 144.614 5.24826C145.719 5.24826 146.571 5.58005 147.171 6.1833ZM143.004 39.8144C142.025 38.7587 141.552 37.4014 141.552 35.7425V16.3179H147.518V35.2297C147.518 35.9838 147.645 36.4965 147.897 36.768C148.15 37.0395 148.497 37.1601 149.002 37.1601C149.128 37.1601 149.286 37.1601 149.444 37.1601C149.602 37.1601 149.76 37.1299 149.886 37.0998C150.012 37.0998 150.17 37.0696 150.36 37.0395L150.991 40.6288C150.738 40.7494 150.423 40.8701 150.044 40.9907C149.728 41.0812 149.349 41.1717 148.876 41.232C148.402 41.2924 147.866 41.3225 147.297 41.3225C145.372 41.3828 143.983 40.8701 143.004 39.8144Z" fill="#393939"/>
<path d="M174.825 29.1671C174.825 31.1578 174.952 32.8469 175.204 34.174C175.457 35.5313 175.741 36.6172 176.056 37.4316C176.435 38.4269 176.846 39.2111 177.319 39.7842L172.679 41.594C172.237 41.1717 171.795 40.6589 171.416 40.0557C171.1 39.5128 170.816 38.8794 170.532 38.1253C170.248 37.3712 170.09 36.4965 169.995 35.4408C169.396 37.4316 168.448 38.9397 167.154 39.9652C165.86 40.9907 164.092 41.4733 161.851 41.4733C160.209 41.4733 158.789 41.1717 157.589 40.5986C156.389 40.0255 155.379 39.181 154.59 38.0951C153.801 37.0093 153.201 35.7123 152.822 34.174C152.443 32.6357 152.254 30.9466 152.254 29.0766C152.254 27.1763 152.57 25.4269 153.169 23.7982C153.769 22.1995 154.622 20.7819 155.726 19.6357C156.831 18.4594 158.126 17.5545 159.672 16.891C161.219 16.2274 162.892 15.8956 164.755 15.8956C165.797 15.8956 166.902 15.9559 168.007 16.1067C169.143 16.2575 170.185 16.4084 171.163 16.5893C172.142 16.7703 172.963 16.9211 173.657 17.0719C174.352 17.2227 174.731 17.3132 174.825 17.3434V29.1671ZM165.26 36.6473C165.986 36.0743 166.617 35.3504 167.154 34.4153C167.691 33.5105 168.101 32.4548 168.417 31.2784C168.701 30.1021 168.859 28.8956 168.859 27.6589V20.4803C168.512 20.3898 167.975 20.2691 167.28 20.1183C166.586 19.9977 165.955 19.9072 165.386 19.9072C164.06 19.9072 162.987 20.1183 162.135 20.5708C161.282 20.993 160.588 21.5963 160.083 22.3805C159.546 23.1346 159.199 24.0696 158.978 25.1253C158.757 26.181 158.662 27.3573 158.662 28.6241C158.662 29.8005 158.694 30.9165 158.757 31.9722C158.82 33.0279 159.01 33.993 159.294 34.8074C159.578 35.652 160.02 36.2854 160.588 36.768C161.156 37.2506 161.882 37.4919 162.829 37.4919C163.745 37.4919 164.534 37.2204 165.26 36.6473Z" fill="#393939"/>
<path d="M192.859 40.6288C193.838 41.6543 194.311 42.9513 194.311 44.5499C194.311 46.1183 193.838 47.4153 192.859 48.471C191.88 49.5267 190.46 50.0696 188.503 50.0696C186.735 50.0696 185.377 49.5267 184.43 48.471C183.483 47.4153 183.01 46.1485 183.01 44.6705C183.01 43.1323 183.483 41.8051 184.462 40.6891C185.441 39.6032 186.861 39.0603 188.724 39.0603C190.523 39.0905 191.912 39.6032 192.859 40.6288ZM185.03 0H194.722L192.512 33.2691H185.03V0Z" fill="#477E2D"/>
</svg>
