<svg width="40" height="72" viewBox="0 0 40 72" fill="none" xmlns="http://www.w3.org/2000/svg">
<path d="M0 7.21452C1.21212 6.21385 2.52252 5.27774 3.9312 4.40618C5.37265 3.53463 6.91237 2.77606 8.55037 2.13046C10.1884 1.45259 11.941 0.936108 13.8084 0.581029C15.7084 0.193674 17.7559 0 19.9509 0C23.0303 0 25.7985 0.403495 28.2555 1.21049C30.7453 2.01748 32.8583 3.17955 34.5946 4.6967C36.3309 6.18157 37.6577 7.98924 38.5749 10.1197C39.525 12.2179 40 14.5582 40 17.1405C40 19.5938 39.656 21.7243 38.9681 23.5319C38.2801 25.3073 37.412 26.8568 36.3636 28.1802C35.3153 29.5037 34.1523 30.6496 32.8747 31.618C31.6298 32.5864 30.4341 33.4902 29.2875 34.3295C28.1736 35.1365 27.1908 35.9435 26.3391 36.7505C25.5201 37.5575 24.9959 38.4613 24.7666 39.462L23.3907 46.2408H12.973L11.8919 38.4452C11.6298 36.8635 11.7936 35.4916 12.3833 34.3295C12.973 33.1352 13.7756 32.0699 14.7912 31.1338C15.8395 30.1654 17.0025 29.2616 18.2801 28.4223C19.5577 27.5508 20.7535 26.6308 21.8673 25.6624C22.9812 24.6617 23.9148 23.5642 24.6683 22.3699C25.4545 21.1432 25.8477 19.6907 25.8477 18.0121C25.8477 16.0753 25.1925 14.542 23.8821 13.4122C22.6044 12.2502 20.8354 11.6691 18.5749 11.6691C16.8387 11.6691 15.3808 11.8467 14.2015 12.2017C13.0549 12.5568 12.0557 12.9603 11.2039 13.4122C10.3849 13.8319 9.66421 14.2192 9.04177 14.5743C8.41933 14.9294 7.79689 15.1069 7.17445 15.1069C5.76577 15.1069 4.71744 14.5098 4.02948 13.3154L0 7.21452ZM9.04177 63.7202C9.04177 62.5582 9.25471 61.4768 9.68059 60.4761C10.1392 59.4755 10.7453 58.6039 11.4988 57.8615C12.285 57.119 13.2023 56.538 14.2506 56.1184C15.2989 55.6664 16.4455 55.4405 17.6904 55.4405C18.9025 55.4405 20.0328 55.6664 21.0811 56.1184C22.1294 56.538 23.0467 57.119 23.8329 57.8615C24.6192 58.6039 25.2252 59.4755 25.6511 60.4761C26.1097 61.4768 26.3391 62.5582 26.3391 63.7202C26.3391 64.8823 26.1097 65.9798 25.6511 67.0128C25.2252 68.0135 24.6192 68.885 23.8329 69.6274C23.0467 70.3699 22.1294 70.9509 21.0811 71.3706C20.0328 71.7902 18.9025 72 17.6904 72C16.4455 72 15.2989 71.7902 14.2506 71.3706C13.2023 70.9509 12.285 70.3699 11.4988 69.6274C10.7453 68.885 10.1392 68.0135 9.68059 67.0128C9.25471 65.9798 9.04177 64.8823 9.04177 63.7202Z" fill="white"/>
</svg>
